<!--?xml version="1.0" encoding="utf-8"?-->
<!-- Generator: Adobe Illustrator 18.1.1, SVG Export Plug-In . SVG Version: 6.00 Build 0)  -->

<svg version="1.1" id="_x31_0" xmlns="http://www.w3.org/2000/svg" xmlns:xlink="http://www.w3.org/1999/xlink" x="0px" y="0px" viewBox="0 0 512 512" style="width: 64px; height: 64px; opacity: 1;" xml:space="preserve">
<style type="text/css">
	.st0{fill:#374149;}
</style>
<g>
	<path class="st0" d="M427.836,304l-0.203,0.106l-27.45,13.996l-1.5,0.766l-29.07-16.652l-14.63-8.473l43.61-24.981l22.203-12.625
		l-0.082-0.047l0.16-0.09l-43.902-25.149l-21.989-12.687l43.699-25.035l1.5,0.77l27.45,13.992l0.203,0.106l70.047,35.821
		l13.98-26.922l0.066-0.121h-0.004l0.074-0.141l-42.649-21.809l-27.601-14.117l-7.391-3.778l-3.82-2.046l56.801-32.539l0.199-0.114
		l0.141-0.082l-16.469-28.301l-37.118,21.262l-20.102,11.418l0.602-12.496l1.481-30.774l2.289-47.55l-30.578-1.45l-0.05-0.004
		l-0.156-0.007l-3.762,78.098l-0.012,0.23l-1.508,30.582l-0.082,1.672l-29.305,16.789l-14.473,8.2v-50.41l0.078-24.946l-0.078,0.047
		v-0.184l-44.02,25.219l-21.949,12.48v-50.062l1.422-0.906l25.938-16.59l0.195-0.121l65.817-41.985l0.332-0.21l0.133-0.086
		L349.641,16.34l-40.359,25.742l-26.122,16.66l-7.004,4.469l-3.687,2.25V0h-32.938v42.754l-0.086,22.754l-10.602-6.766
		l-26.126-16.66L162.363,16.34l-16.461,25.406l-0.121,0.183l-0.086,0.133l66.286,42.282l0.195,0.121l25.938,16.59l1.418,0.906
		v33.664l-0.078,16.446l-43.898-25.149l-21.832-12.594v0.09l-0.16-0.094v50.688l-0.078,24.847l-43.699-25.031l-0.078-1.672
		l-1.512-30.582l-0.012-0.23l-3.746-77.875l-0.004-0.062l-0.008-0.16l-30.578,1.449l-0.047,0.004l-0.16,0.008l2.289,47.55
		l1.481,30.774l0.398,8.297l0.125,4.254l-57.141-32.734l-16.207,27.851l-0.183,0.313h0.004l-0.082,0.137l37.012,21.202
		l20.121,11.626l-11.206,5.73l-27.602,14.117l-42.082,21.52l-0.426,0.214h0.004L0,216.633l14.121,27.184l70.043-35.821l0.207-0.106
		l27.449-13.992l1.5-0.77l29.114,16.684l14.582,8.441l-43.657,25.012l-22.152,12.594l0.082,0.047L91.129,256l43.832,25.11
		l22.055,12.726l-43.696,25.031l-1.5-0.766l-27.449-13.996L84.164,304l-70.043-35.817L0.156,295.062l-0.082,0.16L0,295.367
		l42.649,21.809l27.602,14.113l7.374,3.774l3.836,2.054l-56.562,32.402l-0.438,0.246h0.004l-0.141,0.082l16.469,28.301
		l37.226-21.325l19.993-11.355l-0.602,12.496l-1.481,30.778l-2.274,47.277l-0.007,0.114l-0.008,0.156l30.785,1.462l3.758-78.098
		l0.012-0.226l1.512-30.582l0.078-1.676l29.278-16.77l14.5-8.215v50.406l-0.078,24.942l0.078-0.043v0.184l44.062-25.242
		l21.906-12.457v50.066l-1.418,0.902l-25.938,16.59l-0.195,0.125l-65.649,41.871l-0.504,0.321h0.004l-0.137,0.086l16.668,25.722
		l40.355-25.742l26.126-16.661l7.027-4.48l3.66-2.238V512h32.938v-42.718l0.086-22.79l10.606,6.762l26.122,16.661l40.359,25.742
		l16.488-25.445l0.09-0.141l0.086-0.137l-66.282-42.278l-0.195-0.125l-25.938-16.59l-1.422-0.902v-33.668l0.078-16.446
		l43.937,25.172l21.794,12.574v-0.09l0.16,0.094v-50.688l0.078-24.851l43.699,25.031l0.082,1.676l1.508,30.582l0.012,0.226
		l3.75,77.887l0.004,0.05l0.008,0.161l30.586-1.45l0.039-0.004l0.16-0.008l-2.289-47.546l-1.481-30.778l-0.402-8.324l-0.121-4.223
		l57.141,32.731l16.273-27.969l0.114-0.196l0.082-0.136l-37.07-21.238l-20.062-11.59l11.203-5.73l27.601-14.113l42.199-21.578
		l0.309-0.16l0.141-0.07l-14.117-27.184L427.836,304z M167.973,262.282l-10.89-6.329l32.949-18.878l21.922,12.558l11.031,6.414
		l-32.953,18.874L167.973,262.282z M239.531,322.149L217.41,334.82l-10.91,6.161v-37.754l33.031-18.926V322.149z M239.531,215.278
		l-0.078,12.374L206.5,208.774v-37.848l33.031,18.926V215.278z M272.469,189.851L305.5,170.93v37.844l-22.11,12.668l-10.922,6.164
		V189.851z M305.5,328.57l-0.078,12.453l-32.953-18.874v-37.848l33.031,18.922V328.57z M321.969,274.922l-22-12.602l-10.95-6.367
		l32.95-18.874l21.961,12.578l10.992,6.391L321.969,274.922z" style="fill: rgb(58, 171, 210);"></path>
</g>
</svg>
